<?xml version="1.0" encoding="utf-8"?>
<svg version="1.1" id="Warstwa_1" xmlns="http://www.w3.org/2000/svg" xmlns:xlink="http://www.w3.org/1999/xlink" x="0px" y="0px"
	 viewBox="0 0 495 134.1" style="enable-background:new 0 0 495 134.1;" xml:space="preserve">
<style type="text/css">
	.st0{fill:#009DCC;}
</style>
<path class="st0" d="M86.46,53.62c0,11.51-9.33,20.85-20.85,20.85c-11.52,0-20.85-9.33-20.85-20.85c0-11.51,9.33-20.85,20.85-20.85
	C77.13,32.77,86.46,42.1,86.46,53.62"/>
<path class="st0" d="M269.89,104.3c-11.51,0-20.85-9.34-20.85-20.85c0-11.52,9.34-20.85,20.85-20.85c11.51,0,20.85,9.33,20.85,20.85
	C290.74,94.96,281.4,104.3,269.89,104.3 M274.36,32.78c-9.41,0-17.9,3.98-23.87,10.33V2.98c0-1.65-1.34-2.98-2.98-2.98h-29.82
	c-1.65,0-2.98,1.33-2.98,2.98v125.18c0,1.64,1.33,2.98,2.98,2.98h29.82c1.64,0,2.98-1.34,2.98-2.98v-4.33
	c5.97,6.35,14.46,10.32,23.87,10.32c0.37,0,0.73-0.01,1.1-0.02c0.13-0.02,0.28-0.02,0.43-0.02c0.06-0.01,0.14-0.01,0.21-0.01
	c27.19-0.91,48.95-23.24,48.95-50.64C325.04,55.47,302.35,32.78,274.36,32.78"/>
<path class="st0" d="M32.8,35.78H2.98C1.34,35.78,0,37.12,0,38.76v89.41c0,1.65,1.34,2.98,2.98,2.98H32.8
	c1.64,0,2.98-1.33,2.98-2.98V38.76C35.78,37.12,34.44,35.78,32.8,35.78"/>
<path class="st0" d="M492.02,0H462.2c-1.65,0-2.98,1.33-2.98,2.98v125.19c0,1.65,1.34,2.98,2.98,2.98h29.82
	c1.64,0,2.98-1.33,2.98-2.98V2.98C495,1.33,493.67,0,492.02,0"/>
<path class="st0" d="M143,83.46h24.01h26.78c1.64,0,2.98-1.34,2.98-2.98c0-0.02-0.01-0.03-0.01-0.05c-0.01-0.1-0.01-0.19-0.02-0.29
	c-1.72-26.43-23.71-47.34-50.57-47.34c-27.99,0-50.68,22.68-50.68,50.67c0,28,22.69,50.68,50.68,50.68
	c22.46,0,41.5-14.62,48.15-34.85c0.01-0.04,0.02-0.08,0.03-0.12c0.08-0.26,0.12-0.54,0.12-0.83c0-1.64-1.34-2.98-2.98-2.98h-0.05
	h-26.72c-0.89,0-1.69,0.39-2.23,1.01c-0.04,0.04-0.08,0.08-0.12,0.13c-3.82,4.75-9.66,7.79-16.23,7.79
	c-11.51,0-20.84-9.33-20.84-20.85H143z"/>
<path class="st0" d="M387.51,83.46h24.01h26.78c1.65,0,2.98-1.34,2.98-2.98v-0.05c-0.01-0.1-0.01-0.19-0.02-0.29
	c-1.72-26.43-23.71-47.34-50.57-47.34c-27.99,0-50.68,22.68-50.68,50.67c0,28,22.69,50.68,50.68,50.68
	c22.46,0,41.51-14.62,48.15-34.85c0.01-0.04,0.02-0.08,0.03-0.12c0.08-0.26,0.11-0.54,0.11-0.83c0-1.64-1.33-2.98-2.98-2.98h-0.03
	h-26.72c-0.9,0-1.69,0.39-2.24,1.01c-0.03,0.04-0.07,0.08-0.11,0.13c-3.82,4.75-9.67,7.79-16.22,7.79
	c-11.51,0-20.85-9.33-20.85-20.85H387.51z"/>
</svg>
